<?xml version="1.0" encoding="UTF-8" standalone="no"?>
<!-- Created with Inkscape (http://www.inkscape.org/) -->

<svg
   xmlns:dc="http://purl.org/dc/elements/1.1/"
   xmlns:cc="http://creativecommons.org/ns#"
   xmlns:rdf="http://www.w3.org/1999/02/22-rdf-syntax-ns#"
   xmlns:svg="http://www.w3.org/2000/svg"
   xmlns="http://www.w3.org/2000/svg"
   xmlns:sodipodi="http://sodipodi.sourceforge.net/DTD/sodipodi-0.dtd"
   xmlns:inkscape="http://www.inkscape.org/namespaces/inkscape"
   width="744.09448819"
   height="1052.3622047"
   id="svg2"
   version="1.1"
   inkscape:version="0.47 r22583"
   sodipodi:docname="shades.svg">
  <defs
     id="defs4">
    <inkscape:perspective
       sodipodi:type="inkscape:persp3d"
       inkscape:vp_x="0 : 526.18109 : 1"
       inkscape:vp_y="0 : 1000 : 0"
       inkscape:vp_z="744.09448 : 526.18109 : 1"
       inkscape:persp3d-origin="372.04724 : 350.78739 : 1"
       id="perspective10" />
  </defs>
  <sodipodi:namedview
     id="base"
     pagecolor="#ffffff"
     bordercolor="#666666"
     borderopacity="1.0"
     inkscape:pageopacity="0.0"
     inkscape:pageshadow="2"
     inkscape:zoom="2.2616652"
     inkscape:cx="120.19573"
     inkscape:cy="58.757868"
     inkscape:document-units="px"
     inkscape:current-layer="layer1"
     showgrid="false"
     inkscape:window-width="1024"
     inkscape:window-height="554"
     inkscape:window-x="0"
     inkscape:window-y="21"
     inkscape:window-maximized="1" />
  <metadata
     id="metadata7">
    <rdf:RDF>
      <cc:Work
         rdf:about="">
        <dc:format>image/svg+xml</dc:format>
        <dc:type
           rdf:resource="http://purl.org/dc/dcmitype/StillImage" />
        <dc:title></dc:title>
      </cc:Work>
    </rdf:RDF>
  </metadata>
  <g
     inkscape:label="Layer 1"
     inkscape:groupmode="layer"
     id="layer1">
    <path
       style="fill:#333333;fill-opacity:1;fill-rule:nonzero;stroke:none"
       d="m 0.0560177,1025.3337 c 0,0 27.4058353,27.1377 27.0874873,27.0063 l 19.081399,-46.2158 c 0,0 -46.1688863,19.2095 -46.1688863,19.2095 z"
       id="path2820"
       sodipodi:nodetypes="cccc" />
    <path
       style="fill:#4d4d4d;fill-opacity:1;fill-rule:nonzero;stroke:none"
       d="M 0.0692861,1025.319 46.226922,1006.1375 0,987.05758 c 0,0 0.2014475,38.57952 0.069286,38.26142 z"
       id="path2832"
       inkscape:transform-center-x="23.113221"
       inkscape:transform-center-y="0.053716773" />
    <path
       inkscape:transform-center-y="-23.0879"
       inkscape:transform-center-x="23.102314"
       id="path2851"
       d="m 0.023716,987.06212 46.201768,19.07498 -19.19585,-46.17888 c 0,0 -27.1373586,27.42225 -27.005918,27.1039 z"
       style="fill:#666666;fill-opacity:1;fill-rule:nonzero;stroke:none" />
    <path
       sodipodi:nodetypes="cccc"
       id="path2853"
       d="m 65.299132,959.91285 c 0,0 -38.568127,0.18959 -38.250057,0.0574 l 19.186903,46.17215 c 0,0 19.063154,-46.22955 19.063154,-46.22955 z"
       style="fill:#808080;fill-opacity:1;fill-rule:nonzero;stroke:none" />
    <path
       inkscape:transform-center-y="-23.102321"
       inkscape:transform-center-x="-23.087931"
       id="path2855"
       d="m 65.300091,959.93264 -19.074933,46.20166 46.178913,-19.19581 c 0,0 -27.422263,-27.13737 -27.103981,-27.00585 z"
       style="fill:#999999;fill-opacity:1;fill-rule:nonzero;stroke:none" />
    <path
       style="fill:#808080;fill-opacity:1;fill-rule:nonzero;stroke:none"
       d="m 92.384045,986.95212 -46.157616,19.18148 46.226892,19.08 c 0,0 -0.201419,-38.57957 -0.06928,-38.26148 z"
       id="path2857"
       inkscape:transform-center-x="-23.113204"
       inkscape:transform-center-y="-0.053685883" />
    <path
       sodipodi:nodetypes="cccc"
       id="path2859"
       d="m 65.424788,1052.3062 c 0,0 27.137749,-27.4058 27.006323,-27.0875 L 46.21523,1006.1374 c 0,0 19.209557,46.1688 19.209557,46.1688 z"
       style="fill:#666666;fill-opacity:1;fill-rule:nonzero;stroke:none" />
    <path
       inkscape:transform-center-y="23.113202"
       inkscape:transform-center-x="-0.05372561"
       id="path2861"
       d="m 65.410126,1052.293 -19.181551,-46.1576 -19.079893,46.2268 c 0,0 38.579489,-0.2014 38.261444,-0.069 z"
       style="fill:#4d4d4d;fill-opacity:1;fill-rule:nonzero;stroke:none" />
  </g>
</svg>
