<?xml version="1.0" encoding="UTF-8" standalone="no"?>
<!-- Created with Inkscape (http://www.inkscape.org/) -->

<svg
   xmlns:dc="http://purl.org/dc/elements/1.1/"
   xmlns:cc="http://creativecommons.org/ns#"
   xmlns:rdf="http://www.w3.org/1999/02/22-rdf-syntax-ns#"
   xmlns:svg="http://www.w3.org/2000/svg"
   xmlns="http://www.w3.org/2000/svg"
   xmlns:sodipodi="http://sodipodi.sourceforge.net/DTD/sodipodi-0.dtd"
   xmlns:inkscape="http://www.inkscape.org/namespaces/inkscape"
   width="744.09448819"
   height="1052.3622047"
   id="svg2"
   version="1.1"
   inkscape:version="0.47 r22583"
   sodipodi:docname="New document 1">
  <defs
     id="defs4">
    <inkscape:perspective
       sodipodi:type="inkscape:persp3d"
       inkscape:vp_x="0 : 526.18109 : 1"
       inkscape:vp_y="0 : 1000 : 0"
       inkscape:vp_z="744.09448 : 526.18109 : 1"
       inkscape:persp3d-origin="372.04724 : 350.78739 : 1"
       id="perspective10" />
  </defs>
  <sodipodi:namedview
     id="base"
     pagecolor="#ffffff"
     bordercolor="#666666"
     borderopacity="1.0"
     inkscape:pageopacity="0.0"
     inkscape:pageshadow="2"
     inkscape:zoom="1"
     inkscape:cx="420.88753"
     inkscape:cy="520"
     inkscape:document-units="px"
     inkscape:current-layer="layer1"
     showgrid="true"
     showborder="false"
     gridtolerance="10"
     inkscape:window-width="1280"
     inkscape:window-height="752"
     inkscape:window-x="0"
     inkscape:window-y="0"
     inkscape:window-maximized="0">
    <inkscape:grid
       type="xygrid"
       id="grid2816"
       empspacing="10"
       visible="true"
       enabled="true"
       snapvisiblegridlinesonly="true"
       spacingx="5px"
       spacingy="2.5px" />
  </sodipodi:namedview>
  <metadata
     id="metadata7">
    <rdf:RDF>
      <cc:Work
         rdf:about="">
        <dc:format>image/svg+xml</dc:format>
        <dc:type
           rdf:resource="http://purl.org/dc/dcmitype/StillImage" />
        <dc:title></dc:title>
      </cc:Work>
    </rdf:RDF>
  </metadata>
  <g
     inkscape:label="Layer 1"
     inkscape:groupmode="layer"
     id="layer1">
    <rect
       style="fill:#ffe3d5;fill-opacity:1;stroke:#000000;stroke-width:1.29099452;stroke-miterlimit:4;stroke-opacity:1;stroke-dasharray:none"
       id="rect3969"
       width="79.056976"
       height="79.056976"
       x="649.36664"
       y="227.7296"
       transform="matrix(0.9486833,0.31622777,-0.9486833,0.31622777,0,0)" />
    <rect
       transform="matrix(0.9486833,0.31622777,-0.9486833,0.31622777,0,0)"
       y="227.72949"
       x="728.42371"
       height="79.056976"
       width="79.056976"
       id="rect3827"
       style="fill:#ffe3d5;fill-opacity:1;stroke:#000000;stroke-width:1.29099452;stroke-miterlimit:4;stroke-opacity:1;stroke-dasharray:none" />
    <rect
       style="fill:#ffe3d5;fill-opacity:1;stroke:#000000;stroke-width:1.29099452;stroke-miterlimit:4;stroke-opacity:1;stroke-dasharray:none"
       id="rect3607"
       width="79.056976"
       height="79.056976"
       x="491.25275"
       y="464.90042"
       transform="matrix(0.9486833,0.31622777,-0.9486833,0.31622777,0,0)" />
    <rect
       transform="matrix(0.9486833,0.31622777,-0.9486833,0.31622777,0,0)"
       y="702.07123"
       x="886.53735"
       height="79.056976"
       width="79.056976"
       id="rect3613"
       style="fill:#ffe3d5;fill-opacity:1;stroke:#000000;stroke-width:1.29099452;stroke-miterlimit:4;stroke-opacity:1;stroke-dasharray:none" />
    <rect
       style="fill:#ffe3d5;fill-opacity:1;stroke:#000000;stroke-width:1.29099452;stroke-miterlimit:4;stroke-opacity:1;stroke-dasharray:none"
       id="rect3615"
       width="79.056976"
       height="79.056976"
       x="728.42358"
       y="543.95734"
       transform="matrix(0.9486833,0.31622777,-0.9486833,0.31622777,0,0)" />
    <rect
       transform="matrix(0.9486833,0.31622777,-0.9486833,0.31622777,0,0)"
       y="464.90036"
       x="728.42358"
       height="79.056976"
       width="79.056976"
       id="rect3617"
       style="fill:#ffe3d5;fill-opacity:1;stroke:#000000;stroke-width:1.29099452;stroke-miterlimit:4;stroke-opacity:1;stroke-dasharray:none" />
    <rect
       style="fill:#ffe3d5;fill-opacity:1;stroke:#000000;stroke-width:1.29099452;stroke-miterlimit:4;stroke-opacity:1;stroke-dasharray:none"
       id="rect3619"
       width="79.056976"
       height="79.056976"
       x="570.30969"
       y="623.01428"
       transform="matrix(0.9486833,0.31622777,-0.9486833,0.31622777,0,0)" />
    <rect
       transform="matrix(0.9486833,0.31622777,-0.9486833,0.31622777,0,0)"
       y="346.31494"
       x="609.8382"
       height="79.056976"
       width="79.056976"
       id="rect3621"
       style="fill:#ffccb3;fill-opacity:1;stroke:#000000;stroke-width:1.29099451999999992;stroke-miterlimit:4;stroke-opacity:1;stroke-dasharray:none" />
    <rect
       style="fill:#ffe3d5;fill-opacity:1;stroke:#000000;stroke-width:1.29099452;stroke-miterlimit:4;stroke-opacity:1;stroke-dasharray:none"
       id="rect3623"
       width="79.056976"
       height="79.056976"
       x="570.30969"
       y="543.95728"
       transform="matrix(0.9486833,0.31622777,-0.9486833,0.31622777,0,0)" />
    <rect
       transform="matrix(0.9486833,0.31622777,-0.9486833,0.31622777,0,0)"
       y="464.90042"
       x="649.36664"
       height="79.056976"
       width="79.056976"
       id="rect3625"
       style="fill:#ffe3d5;fill-opacity:1;stroke:#000000;stroke-width:1.29099452;stroke-miterlimit:4;stroke-opacity:1;stroke-dasharray:none" />
    <rect
       style="fill:#ffe3d5;fill-opacity:1;stroke:#000000;stroke-width:1.29099452;stroke-miterlimit:4;stroke-opacity:1;stroke-dasharray:none"
       id="rect3627"
       width="79.056976"
       height="79.056976"
       x="491.25275"
       y="543.95728"
       transform="matrix(0.9486833,0.31622777,-0.9486833,0.31622777,0,0)" />
    <rect
       transform="matrix(0.9486833,0.31622777,-0.9486833,0.31622777,0,0)"
       y="623.01428"
       x="649.36664"
       height="79.056976"
       width="79.056976"
       id="rect3629"
       style="fill:#ffe3d5;fill-opacity:1;stroke:#000000;stroke-width:1.29099452;stroke-miterlimit:4;stroke-opacity:1;stroke-dasharray:none" />
    <rect
       style="fill:#ffe3d5;fill-opacity:1;stroke:#000000;stroke-width:1.29099452;stroke-miterlimit:4;stroke-opacity:1;stroke-dasharray:none"
       id="rect3631"
       width="79.056976"
       height="79.056976"
       x="649.36664"
       y="543.95734"
       transform="matrix(0.9486833,0.31622777,-0.9486833,0.31622777,0,0)" />
    <rect
       transform="matrix(0.9486833,0.31622777,-0.9486833,0.31622777,0,0)"
       y="623.01428"
       x="728.42352"
       height="79.056976"
       width="79.056976"
       id="rect3633"
       style="fill:#ffe3d5;fill-opacity:1;stroke:#000000;stroke-width:1.29099452;stroke-miterlimit:4;stroke-opacity:1;stroke-dasharray:none" />
    <rect
       style="fill:#ffe3d5;fill-opacity:1;stroke:#000000;stroke-width:1.29099452;stroke-miterlimit:4;stroke-opacity:1;stroke-dasharray:none"
       id="rect3635"
       width="79.056976"
       height="79.056976"
       x="807.48041"
       y="781.12817"
       transform="matrix(0.9486833,0.31622777,-0.9486833,0.31622777,0,0)" />
    <rect
       style="fill:#ffe3d5;fill-opacity:1;stroke:#000000;stroke-width:1.29099452;stroke-miterlimit:4;stroke-opacity:1;stroke-dasharray:none"
       id="rect3637"
       width="79.056976"
       height="79.056976"
       x="886.53748"
       y="623.01422"
       transform="matrix(0.9486833,0.31622777,-0.9486833,0.31622777,0,0)" />
    <rect
       transform="matrix(0.9486833,0.31622777,-0.9486833,0.31622777,0,0)"
       y="781.12817"
       x="728.42358"
       height="79.056976"
       width="79.056976"
       id="rect3639"
       style="fill:#ffe3d5;fill-opacity:1;stroke:#000000;stroke-width:1.29099452;stroke-miterlimit:4;stroke-opacity:1;stroke-dasharray:none" />
    <rect
       style="fill:#ffe3d5;fill-opacity:1;stroke:#000000;stroke-width:1.29099452;stroke-miterlimit:4;stroke-opacity:1;stroke-dasharray:none"
       id="rect3641"
       width="79.056976"
       height="79.056976"
       x="807.48053"
       y="543.95728"
       transform="matrix(0.9486833,0.31622777,-0.9486833,0.31622777,0,0)" />
    <rect
       transform="matrix(0.9486833,0.31622777,-0.9486833,0.31622777,0,0)"
       y="702.07117"
       x="728.42358"
       height="79.056976"
       width="79.056976"
       id="rect3643"
       style="fill:#ffe3d5;fill-opacity:1;stroke:#000000;stroke-width:1.29099452;stroke-miterlimit:4;stroke-opacity:1;stroke-dasharray:none" />
    <rect
       style="fill:#ffe3d5;fill-opacity:1;stroke:#000000;stroke-width:1.29099452;stroke-miterlimit:4;stroke-opacity:1;stroke-dasharray:none"
       id="rect3645"
       width="79.056976"
       height="79.056976"
       x="807.48053"
       y="623.01428"
       transform="matrix(0.9486833,0.31622777,-0.9486833,0.31622777,0,0)" />
    <rect
       transform="matrix(0.9486833,0.31622777,-0.9486833,0.31622777,0,0)"
       y="702.07117"
       x="649.36664"
       height="79.056976"
       width="79.056976"
       id="rect3647"
       style="fill:#ffe3d5;fill-opacity:1;stroke:#000000;stroke-width:1.29099452;stroke-miterlimit:4;stroke-opacity:1;stroke-dasharray:none" />
    <rect
       transform="matrix(0.9486833,0.31622777,-0.9486833,0.31622777,0,0)"
       y="702.07123"
       x="807.48053"
       height="79.056976"
       width="79.056976"
       id="rect3649"
       style="fill:#ffe3d5;fill-opacity:1;stroke:#000000;stroke-width:1.29099452;stroke-miterlimit:4;stroke-opacity:1;stroke-dasharray:none" />
    <rect
       style="fill:#ffccb3;fill-opacity:1;stroke:#000000;stroke-width:1.29099451999999992;stroke-miterlimit:4;stroke-opacity:1;stroke-dasharray:none"
       id="rect3651"
       width="79.056976"
       height="79.056976"
       x="609.8382"
       y="267.25806"
       transform="matrix(0.9486833,0.31622777,-0.9486833,0.31622777,0,0)" />
    <rect
       style="fill:#ffe3d5;fill-opacity:1;stroke:#000000;stroke-width:1.29099452;stroke-miterlimit:4;stroke-opacity:1;stroke-dasharray:none"
       id="rect3653"
       width="79.056976"
       height="79.056976"
       x="965.5943"
       y="623.01428"
       transform="matrix(0.9486833,0.31622777,-0.9486833,0.31622777,0,0)" />
    <rect
       transform="matrix(0.9486833,0.31622777,-0.9486833,0.31622777,0,0)"
       y="464.90039"
       x="807.48053"
       height="79.056976"
       width="79.056976"
       id="rect3655"
       style="fill:#ffe3d5;fill-opacity:1;stroke:#000000;stroke-width:1.29099452;stroke-miterlimit:4;stroke-opacity:1;stroke-dasharray:none" />
    <rect
       style="fill:#ffe3d5;fill-opacity:1;stroke:#000000;stroke-width:1.29099452;stroke-miterlimit:4;stroke-opacity:1;stroke-dasharray:none"
       id="rect3657"
       width="79.056976"
       height="79.056976"
       x="807.48053"
       y="385.84341"
       transform="matrix(0.9486833,0.31622777,-0.9486833,0.31622777,0,0)" />
    <rect
       style="fill:#ffccb3;fill-opacity:1;stroke:#000000;stroke-width:1.29099451999999992;stroke-miterlimit:4;stroke-opacity:1;stroke-dasharray:none"
       id="rect3659"
       width="79.056976"
       height="79.056976"
       x="688.89514"
       y="267.258"
       transform="matrix(0.9486833,0.31622777,-0.9486833,0.31622777,0,0)" />
    <rect
       style="fill:#ffe3d5;fill-opacity:1;stroke:#000000;stroke-width:1.29099452;stroke-miterlimit:4;stroke-opacity:1;stroke-dasharray:none"
       id="rect3661"
       width="79.056976"
       height="79.056976"
       x="728.42358"
       y="385.84348"
       transform="matrix(0.9486833,0.31622777,-0.9486833,0.31622777,0,0)" />
    <rect
       transform="matrix(0.9486833,0.31622777,-0.9486833,0.31622777,0,0)"
       y="464.90033"
       x="886.53748"
       height="79.056976"
       width="79.056976"
       id="rect3665"
       style="fill:#ffe3d5;fill-opacity:1;stroke:#000000;stroke-width:1.29099452;stroke-miterlimit:4;stroke-opacity:1;stroke-dasharray:none" />
    <rect
       transform="matrix(0.9486833,0.31622777,-0.9486833,0.31622777,0,0)"
       y="543.95734"
       x="886.53748"
       height="79.056976"
       width="79.056976"
       id="rect3667"
       style="fill:#ffe3d5;fill-opacity:1;stroke:#000000;stroke-width:1.29099452;stroke-miterlimit:4;stroke-opacity:1;stroke-dasharray:none" />
    <rect
       transform="matrix(0.9486833,0.31622777,-0.9486833,0.31622777,0,0)"
       y="781.12817"
       x="886.53741"
       height="79.056976"
       width="79.056976"
       id="rect3669"
       style="fill:#ffe3d5;fill-opacity:1;stroke:#000000;stroke-width:1.29099452;stroke-miterlimit:4;stroke-opacity:1;stroke-dasharray:none" />
    <rect
       style="fill:#fff2eb;fill-opacity:1;stroke:#000000;stroke-width:1.29099451999999992;stroke-miterlimit:4;stroke-opacity:1;stroke-dasharray:none"
       id="rect3671"
       width="79.056976"
       height="79.056976"
       x="1242.2936"
       y="1057.8275"
       transform="matrix(0.9486833,0.31622777,-0.9486833,0.31622777,0,0)" />
    <rect
       transform="matrix(0.9486833,0.31622777,-0.9486833,0.31622777,0,0)"
       y="899.71362"
       x="1084.1798"
       height="79.056976"
       width="79.056976"
       id="rect3673"
       style="fill:#fff2ec;fill-opacity:1;stroke:#000000;stroke-width:1.29099451999999992;stroke-miterlimit:4;stroke-opacity:1;stroke-dasharray:none" />
    <rect
       style="fill:#fff2ec;fill-opacity:1;stroke:#000000;stroke-width:1.29099451999999992;stroke-miterlimit:4;stroke-opacity:1;stroke-dasharray:none"
       id="rect3675"
       width="79.056976"
       height="79.056976"
       x="1084.1798"
       y="820.65662"
       transform="matrix(0.9486833,0.31622777,-0.9486833,0.31622777,0,0)" />
    <rect
       transform="matrix(0.9486833,0.31622777,-0.9486833,0.31622777,0,0)"
       y="978.77057"
       x="926.06592"
       height="79.056976"
       width="79.056976"
       id="rect3677"
       style="fill:#fff2ec;fill-opacity:1;stroke:#000000;stroke-width:1.29099451999999992;stroke-miterlimit:4;stroke-opacity:1;stroke-dasharray:none" />
    <rect
       style="fill:#ffe3d5;fill-opacity:1;stroke:#000000;stroke-width:1.29099452;stroke-miterlimit:4;stroke-opacity:1;stroke-dasharray:none"
       id="rect3679"
       width="79.056976"
       height="79.056976"
       x="965.59442"
       y="702.07117"
       transform="matrix(0.9486833,0.31622777,-0.9486833,0.31622777,0,0)" />
    <rect
       transform="matrix(0.9486833,0.31622777,-0.9486833,0.31622777,0,0)"
       y="899.71356"
       x="926.06592"
       height="79.056976"
       width="79.056976"
       id="rect3681"
       style="fill:#fff2ec;fill-opacity:1;stroke:#000000;stroke-width:1.29099451999999992;stroke-miterlimit:4;stroke-opacity:1;stroke-dasharray:none" />
    <rect
       style="fill:#ffe3d5;fill-opacity:1;stroke:#000000;stroke-width:1.29099452;stroke-miterlimit:4;stroke-opacity:1;stroke-dasharray:none"
       id="rect3683"
       width="79.056976"
       height="79.056976"
       x="965.59442"
       y="781.12817"
       transform="matrix(0.9486833,0.31622777,-0.9486833,0.31622777,0,0)" />
    <rect
       transform="matrix(0.9486833,0.31622777,-0.9486833,0.31622777,0,0)"
       y="899.71362"
       x="847.00897"
       height="79.056976"
       width="79.056976"
       id="rect3685"
       style="fill:#fff2ec;fill-opacity:1;stroke:#000000;stroke-width:1.29099451999999992;stroke-miterlimit:4;stroke-opacity:1;stroke-dasharray:none" />
    <rect
       style="fill:#fff2eb;fill-opacity:1;stroke:#000000;stroke-width:1.29099451999999992;stroke-miterlimit:4;stroke-opacity:1;stroke-dasharray:none"
       id="rect3687"
       width="79.056976"
       height="79.056976"
       x="1005.1229"
       y="978.77057"
       transform="matrix(0.9486833,0.31622777,-0.9486833,0.31622777,0,0)" />
    <rect
       transform="matrix(0.9486833,0.31622777,-0.9486833,0.31622777,0,0)"
       y="899.71362"
       x="1005.1229"
       height="79.056976"
       width="79.056976"
       id="rect3689"
       style="fill:#fff2ec;fill-opacity:1;stroke:#000000;stroke-width:1.29099451999999992;stroke-miterlimit:4;stroke-opacity:1;stroke-dasharray:none" />
    <rect
       style="fill:#fff2eb;fill-opacity:1;stroke:#000000;stroke-width:1.29099451999999992;stroke-miterlimit:4;stroke-opacity:1;stroke-dasharray:none"
       id="rect3691"
       width="79.056976"
       height="79.056976"
       x="1084.1797"
       y="978.77057"
       transform="matrix(0.9486833,0.31622777,-0.9486833,0.31622777,0,0)" />
    <rect
       transform="matrix(0.9486833,0.31622777,-0.9486833,0.31622777,0,0)"
       y="1136.8844"
       x="1163.2366"
       height="79.056976"
       width="79.056976"
       id="rect3693"
       style="fill:#fff2eb;fill-opacity:1;stroke:#000000;stroke-width:1.29099451999999992;stroke-miterlimit:4;stroke-opacity:1;stroke-dasharray:none" />
    <rect
       transform="matrix(0.9486833,0.31622777,-0.9486833,0.31622777,0,0)"
       y="978.77051"
       x="1242.2937"
       height="79.056976"
       width="79.056976"
       id="rect3695"
       style="fill:#fff2eb;fill-opacity:1;stroke:#000000;stroke-width:1.29099451999999992;stroke-miterlimit:4;stroke-opacity:1;stroke-dasharray:none" />
    <rect
       style="fill:#fff2eb;fill-opacity:1;stroke:#000000;stroke-width:1.29099451999999992;stroke-miterlimit:4;stroke-opacity:1;stroke-dasharray:none"
       id="rect3697"
       width="79.056976"
       height="79.056976"
       x="1084.1798"
       y="1136.8844"
       transform="matrix(0.9486833,0.31622777,-0.9486833,0.31622777,0,0)" />
    <rect
       transform="matrix(0.9486833,0.31622777,-0.9486833,0.31622777,0,0)"
       y="899.71356"
       x="1163.2367"
       height="79.056976"
       width="79.056976"
       id="rect3699"
       style="fill:#fff2eb;fill-opacity:1;stroke:#000000;stroke-width:1.29099451999999992;stroke-miterlimit:4;stroke-opacity:1;stroke-dasharray:none" />
    <rect
       style="fill:#fff2eb;fill-opacity:1;stroke:#000000;stroke-width:1.29099451999999992;stroke-miterlimit:4;stroke-opacity:1;stroke-dasharray:none"
       id="rect3701"
       width="79.056976"
       height="79.056976"
       x="1084.1798"
       y="1057.8275"
       transform="matrix(0.9486833,0.31622777,-0.9486833,0.31622777,0,0)" />
    <rect
       transform="matrix(0.9486833,0.31622777,-0.9486833,0.31622777,0,0)"
       y="978.77057"
       x="1163.2367"
       height="79.056976"
       width="79.056976"
       id="rect3703"
       style="fill:#fff2ec;fill-opacity:1;stroke:#000000;stroke-width:1.29099451999999992;stroke-miterlimit:4;stroke-opacity:1;stroke-dasharray:none" />
    <rect
       style="fill:#fff2eb;fill-opacity:1;stroke:#000000;stroke-width:1.29099451999999992;stroke-miterlimit:4;stroke-opacity:1;stroke-dasharray:none"
       id="rect3705"
       width="79.056976"
       height="79.056976"
       x="1005.1229"
       y="1057.8275"
       transform="matrix(0.9486833,0.31622777,-0.9486833,0.31622777,0,0)" />
    <rect
       style="fill:#fff2eb;fill-opacity:1;stroke:#000000;stroke-width:1.29099451999999992;stroke-miterlimit:4;stroke-opacity:1;stroke-dasharray:none"
       id="rect3707"
       width="79.056976"
       height="79.056976"
       x="1163.2367"
       y="1057.8275"
       transform="matrix(0.9486833,0.31622777,-0.9486833,0.31622777,0,0)" />
    <rect
       transform="matrix(0.9486833,0.31622777,-0.9486833,0.31622777,0,0)"
       y="702.07117"
       x="1123.7083"
       height="79.056976"
       width="79.056976"
       id="rect3713"
       style="fill:#ffe3d5;fill-opacity:1;stroke:#000000;stroke-width:1.29099452;stroke-miterlimit:4;stroke-opacity:1;stroke-dasharray:none" />
    <rect
       transform="matrix(0.9486833,0.31622777,-0.9486833,0.31622777,0,0)"
       y="623.01422"
       x="1044.6514"
       height="79.056976"
       width="79.056976"
       id="rect3715"
       style="fill:#ffe3d5;fill-opacity:1;stroke:#000000;stroke-width:1.29099452;stroke-miterlimit:4;stroke-opacity:1;stroke-dasharray:none" />
    <rect
       transform="matrix(0.9486833,0.31622777,-0.9486833,0.31622777,0,0)"
       y="702.07123"
       x="1044.6514"
       height="79.056976"
       width="79.056976"
       id="rect3717"
       style="fill:#ffe3d5;fill-opacity:1;stroke:#000000;stroke-width:1.29099452;stroke-miterlimit:4;stroke-opacity:1;stroke-dasharray:none" />
    <rect
       style="fill:#ffe3d5;fill-opacity:1;stroke:#000000;stroke-width:1.29099452;stroke-miterlimit:4;stroke-opacity:1;stroke-dasharray:none"
       id="rect3719"
       width="79.056976"
       height="79.056976"
       x="1281.8221"
       y="860.18506"
       transform="matrix(0.9486833,0.31622777,-0.9486833,0.31622777,0,0)" />
    <rect
       style="fill:#ffe3d5;fill-opacity:1;stroke:#000000;stroke-width:1.29099452;stroke-miterlimit:4;stroke-opacity:1;stroke-dasharray:none"
       id="rect3721"
       width="79.056976"
       height="79.056976"
       x="1202.7653"
       y="781.12811"
       transform="matrix(0.9486833,0.31622777,-0.9486833,0.31622777,0,0)" />
    <rect
       style="fill:#ffe3d5;fill-opacity:1;stroke:#000000;stroke-width:1.29099452;stroke-miterlimit:4;stroke-opacity:1;stroke-dasharray:none"
       id="rect3829"
       width="79.056976"
       height="79.056976"
       x="807.48065"
       y="148.67255"
       transform="matrix(0.9486833,0.31622777,-0.9486833,0.31622777,0,0)" />
    <rect
       transform="matrix(0.9486833,0.31622777,-0.9486833,0.31622777,0,0)"
       y="227.72946"
       x="807.48059"
       height="79.056976"
       width="79.056976"
       id="rect3831"
       style="fill:#ffe3d5;fill-opacity:1;stroke:#000000;stroke-width:1.29099452;stroke-miterlimit:4;stroke-opacity:1;stroke-dasharray:none" />
    <rect
       style="fill:#ffe3d5;fill-opacity:1;stroke:#000000;stroke-width:1.29099452;stroke-miterlimit:4;stroke-opacity:1;stroke-dasharray:none"
       id="rect3833"
       width="79.056976"
       height="79.056976"
       x="1123.7083"
       y="464.9003"
       transform="matrix(0.9486833,0.31622777,-0.9486833,0.31622777,0,0)" />
    <rect
       transform="matrix(0.9486833,0.31622777,-0.9486833,0.31622777,0,0)"
       y="306.78641"
       x="965.59454"
       height="79.056976"
       width="79.056976"
       id="rect3835"
       style="fill:#ffe3d5;fill-opacity:1;stroke:#000000;stroke-width:1.29099452;stroke-miterlimit:4;stroke-opacity:1;stroke-dasharray:none" />
    <rect
       style="fill:#ffe3d5;fill-opacity:1;stroke:#000000;stroke-width:1.29099452;stroke-miterlimit:4;stroke-opacity:1;stroke-dasharray:none"
       id="rect3837"
       width="79.056976"
       height="79.056976"
       x="965.59454"
       y="227.72943"
       transform="matrix(0.9486833,0.31622777,-0.9486833,0.31622777,0,0)" />
    <rect
       style="fill:#ffe3d5;fill-opacity:1;stroke:#000000;stroke-width:1.29099452;stroke-miterlimit:4;stroke-opacity:1;stroke-dasharray:none"
       id="rect3839"
       width="79.056976"
       height="79.056976"
       x="886.5376"
       y="148.67249"
       transform="matrix(0.9486833,0.31622777,-0.9486833,0.31622777,0,0)" />
    <rect
       transform="matrix(0.9486833,0.31622777,-0.9486833,0.31622777,0,0)"
       y="306.78635"
       x="807.48065"
       height="79.056976"
       width="79.056976"
       id="rect3841"
       style="fill:#ffe3d5;fill-opacity:1;stroke:#000000;stroke-width:1.29099452;stroke-miterlimit:4;stroke-opacity:1;stroke-dasharray:none" />
    <rect
       style="fill:#ffe3d5;fill-opacity:1;stroke:#000000;stroke-width:1.29099452;stroke-miterlimit:4;stroke-opacity:1;stroke-dasharray:none"
       id="rect3843"
       width="79.056976"
       height="79.056976"
       x="886.5376"
       y="227.72949"
       transform="matrix(0.9486833,0.31622777,-0.9486833,0.31622777,0,0)" />
    <rect
       style="fill:#ffe3d5;fill-opacity:1;stroke:#000000;stroke-width:1.29099452;stroke-miterlimit:4;stroke-opacity:1;stroke-dasharray:none"
       id="rect3845"
       width="79.056976"
       height="79.056976"
       x="886.5376"
       y="385.84335"
       transform="matrix(0.9486833,0.31622777,-0.9486833,0.31622777,0,0)" />
    <rect
       transform="matrix(0.9486833,0.31622777,-0.9486833,0.31622777,0,0)"
       y="306.78641"
       x="886.5376"
       height="79.056976"
       width="79.056976"
       id="rect3847"
       style="fill:#ffe3d5;fill-opacity:1;stroke:#000000;stroke-width:1.29099452;stroke-miterlimit:4;stroke-opacity:1;stroke-dasharray:none" />
    <rect
       style="fill:#ffe3d5;fill-opacity:1;stroke:#000000;stroke-width:1.29099452;stroke-miterlimit:4;stroke-opacity:1;stroke-dasharray:none"
       id="rect3849"
       width="79.056976"
       height="79.056976"
       x="965.59448"
       y="385.84335"
       transform="matrix(0.9486833,0.31622777,-0.9486833,0.31622777,0,0)" />
    <rect
       transform="matrix(0.9486833,0.31622777,-0.9486833,0.31622777,0,0)"
       y="543.95728"
       x="1044.6514"
       height="79.056976"
       width="79.056976"
       id="rect3851"
       style="fill:#ffe3d5;fill-opacity:1;stroke:#000000;stroke-width:1.29099452;stroke-miterlimit:4;stroke-opacity:1;stroke-dasharray:none" />
    <rect
       transform="matrix(0.9486833,0.31622777,-0.9486833,0.31622777,0,0)"
       y="385.84329"
       x="1123.7084"
       height="79.056976"
       width="79.056976"
       id="rect3853"
       style="fill:#ffe3d5;fill-opacity:1;stroke:#000000;stroke-width:1.29099452;stroke-miterlimit:4;stroke-opacity:1;stroke-dasharray:none" />
    <rect
       transform="matrix(0.9486833,0.31622777,-0.9486833,0.31622777,0,0)"
       y="306.78635"
       x="1044.6515"
       height="79.056976"
       width="79.056976"
       id="rect3855"
       style="fill:#ffe3d5;fill-opacity:1;stroke:#000000;stroke-width:1.29099452;stroke-miterlimit:4;stroke-opacity:1;stroke-dasharray:none" />
    <rect
       style="fill:#ffe3d5;fill-opacity:1;stroke:#000000;stroke-width:1.29099452;stroke-miterlimit:4;stroke-opacity:1;stroke-dasharray:none"
       id="rect3857"
       width="79.056976"
       height="79.056976"
       x="965.59454"
       y="464.90024"
       transform="matrix(0.9486833,0.31622777,-0.9486833,0.31622777,0,0)" />
    <rect
       transform="matrix(0.9486833,0.31622777,-0.9486833,0.31622777,0,0)"
       y="385.84335"
       x="1044.6515"
       height="79.056976"
       width="79.056976"
       id="rect3859"
       style="fill:#ffe3d5;fill-opacity:1;stroke:#000000;stroke-width:1.29099452;stroke-miterlimit:4;stroke-opacity:1;stroke-dasharray:none" />
    <rect
       style="fill:#ffccb3;fill-opacity:1;stroke:#000000;stroke-width:1.29099451999999992;stroke-miterlimit:4;stroke-opacity:1;stroke-dasharray:none"
       id="rect3861"
       width="79.056976"
       height="79.056976"
       x="1005.1229"
       y="425.37195"
       transform="matrix(0.9486833,0.31622777,-0.9486833,0.31622777,0,0)" />
    <rect
       transform="matrix(0.9486833,0.31622777,-0.9486833,0.31622777,0,0)"
       y="69.615601"
       x="886.5376"
       height="79.056976"
       width="79.056976"
       id="rect3863"
       style="fill:#ffe3d5;fill-opacity:1;stroke:#000000;stroke-width:1.29099452;stroke-miterlimit:4;stroke-opacity:1;stroke-dasharray:none" />
    <rect
       transform="matrix(0.9486833,0.31622777,-0.9486833,0.31622777,0,0)"
       y="385.84335"
       x="1202.7653"
       height="79.056976"
       width="79.056976"
       id="rect3865"
       style="fill:#ffe3d5;fill-opacity:1;stroke:#000000;stroke-width:1.29099452;stroke-miterlimit:4;stroke-opacity:1;stroke-dasharray:none" />
    <rect
       style="fill:#ffe3d5;fill-opacity:1;stroke:#000000;stroke-width:1.29099452;stroke-miterlimit:4;stroke-opacity:1;stroke-dasharray:none"
       id="rect3867"
       width="79.056976"
       height="79.056976"
       x="1044.6515"
       y="227.72946"
       transform="matrix(0.9486833,0.31622777,-0.9486833,0.31622777,0,0)" />
    <rect
       transform="matrix(0.9486833,0.31622777,-0.9486833,0.31622777,0,0)"
       y="148.67249"
       x="1044.6515"
       height="79.056976"
       width="79.056976"
       id="rect3869"
       style="fill:#ffe3d5;fill-opacity:1;stroke:#000000;stroke-width:1.29099452;stroke-miterlimit:4;stroke-opacity:1;stroke-dasharray:none" />
    <rect
       transform="matrix(0.9486833,0.31622777,-0.9486833,0.31622777,0,0)"
       y="69.61554"
       x="965.59454"
       height="79.056976"
       width="79.056976"
       id="rect3871"
       style="fill:#ffe3d5;fill-opacity:1;stroke:#000000;stroke-width:1.29099452;stroke-miterlimit:4;stroke-opacity:1;stroke-dasharray:none" />
    <rect
       transform="matrix(0.9486833,0.31622777,-0.9486833,0.31622777,0,0)"
       y="148.67255"
       x="965.59454"
       height="79.056976"
       width="79.056976"
       id="rect3873"
       style="fill:#ffe3d5;fill-opacity:1;stroke:#000000;stroke-width:1.29099452;stroke-miterlimit:4;stroke-opacity:1;stroke-dasharray:none" />
    <rect
       style="fill:#ffe3d5;fill-opacity:1;stroke:#000000;stroke-width:1.29099452;stroke-miterlimit:4;stroke-opacity:1;stroke-dasharray:none"
       id="rect3875"
       width="79.056976"
       height="79.056976"
       x="1202.7654"
       y="306.78635"
       transform="matrix(0.9486833,0.31622777,-0.9486833,0.31622777,0,0)" />
    <rect
       style="fill:#ffe3d5;fill-opacity:1;stroke:#000000;stroke-width:1.29099452;stroke-miterlimit:4;stroke-opacity:1;stroke-dasharray:none"
       id="rect3877"
       width="79.056976"
       height="79.056976"
       x="1123.7084"
       y="227.7294"
       transform="matrix(0.9486833,0.31622777,-0.9486833,0.31622777,0,0)" />
    <rect
       style="fill:#ffe3d5;fill-opacity:1;stroke:#000000;stroke-width:1.29099452;stroke-miterlimit:4;stroke-opacity:1;stroke-dasharray:none"
       id="rect3879"
       width="79.056976"
       height="79.056976"
       x="1123.7084"
       y="306.78641"
       transform="matrix(0.9486833,0.31622777,-0.9486833,0.31622777,0,0)" />
    <rect
       style="fill:#ffe3d5;fill-opacity:1;stroke:#000000;stroke-width:1.29099452;stroke-miterlimit:4;stroke-opacity:1;stroke-dasharray:none"
       id="rect3881"
       width="79.056976"
       height="79.056976"
       x="1123.7084"
       y="543.95728"
       transform="matrix(0.9486833,0.31622777,-0.9486833,0.31622777,0,0)" />
    <rect
       transform="matrix(0.9486833,0.31622777,-0.9486833,0.31622777,0,0)"
       y="781.12811"
       x="1439.936"
       height="79.056976"
       width="79.056976"
       id="rect3883"
       style="fill:#ffe3d5;fill-opacity:1;stroke:#000000;stroke-width:1.29099452;stroke-miterlimit:4;stroke-opacity:1;stroke-dasharray:none" />
    <rect
       style="fill:#ffe3d5;fill-opacity:1;stroke:#000000;stroke-width:1.29099452;stroke-miterlimit:4;stroke-opacity:1;stroke-dasharray:none"
       id="rect3885"
       width="79.056976"
       height="79.056976"
       x="1281.8223"
       y="623.01422"
       transform="matrix(0.9486833,0.31622777,-0.9486833,0.31622777,0,0)" />
    <rect
       transform="matrix(0.9486833,0.31622777,-0.9486833,0.31622777,0,0)"
       y="543.95721"
       x="1281.8223"
       height="79.056976"
       width="79.056976"
       id="rect3887"
       style="fill:#ffe3d5;fill-opacity:1;stroke:#000000;stroke-width:1.29099452;stroke-miterlimit:4;stroke-opacity:1;stroke-dasharray:none" />
    <rect
       transform="matrix(0.9486833,0.31622777,-0.9486833,0.31622777,0,0)"
       y="464.90024"
       x="1202.7654"
       height="79.056976"
       width="79.056976"
       id="rect3889"
       style="fill:#ffe3d5;fill-opacity:1;stroke:#000000;stroke-width:1.29099452;stroke-miterlimit:4;stroke-opacity:1;stroke-dasharray:none" />
    <rect
       style="fill:#ffe3d5;fill-opacity:1;stroke:#000000;stroke-width:1.29099452;stroke-miterlimit:4;stroke-opacity:1;stroke-dasharray:none"
       id="rect3891"
       width="79.056976"
       height="79.056976"
       x="1123.7084"
       y="623.01416"
       transform="matrix(0.9486833,0.31622777,-0.9486833,0.31622777,0,0)" />
    <rect
       transform="matrix(0.9486833,0.31622777,-0.9486833,0.31622777,0,0)"
       y="543.95728"
       x="1202.7654"
       height="79.056976"
       width="79.056976"
       id="rect3893"
       style="fill:#ffe3d5;fill-opacity:1;stroke:#000000;stroke-width:1.29099452;stroke-miterlimit:4;stroke-opacity:1;stroke-dasharray:none" />
    <rect
       transform="matrix(0.9486833,0.31622777,-0.9486833,0.31622777,0,0)"
       y="702.07117"
       x="1202.7654"
       height="79.056976"
       width="79.056976"
       id="rect3895"
       style="fill:#ffe3d5;fill-opacity:1;stroke:#000000;stroke-width:1.29099452;stroke-miterlimit:4;stroke-opacity:1;stroke-dasharray:none" />
    <rect
       style="fill:#ffe3d5;fill-opacity:1;stroke:#000000;stroke-width:1.29099452;stroke-miterlimit:4;stroke-opacity:1;stroke-dasharray:none"
       id="rect3897"
       width="79.056976"
       height="79.056976"
       x="1202.7654"
       y="623.01422"
       transform="matrix(0.9486833,0.31622777,-0.9486833,0.31622777,0,0)" />
    <rect
       transform="matrix(0.9486833,0.31622777,-0.9486833,0.31622777,0,0)"
       y="702.07117"
       x="1281.8221"
       height="79.056976"
       width="79.056976"
       id="rect3899"
       style="fill:#ffe3d5;fill-opacity:1;stroke:#000000;stroke-width:1.29099452;stroke-miterlimit:4;stroke-opacity:1;stroke-dasharray:none" />
    <rect
       style="fill:#ffe3d5;fill-opacity:1;stroke:#000000;stroke-width:1.29099452;stroke-miterlimit:4;stroke-opacity:1;stroke-dasharray:none"
       id="rect3901"
       width="79.056976"
       height="79.056976"
       x="1360.879"
       y="860.18506"
       transform="matrix(0.9486833,0.31622777,-0.9486833,0.31622777,0,0)" />
    <rect
       style="fill:#ffe3d5;fill-opacity:1;stroke:#000000;stroke-width:1.29099452;stroke-miterlimit:4;stroke-opacity:1;stroke-dasharray:none"
       id="rect3903"
       width="79.056976"
       height="79.056976"
       x="1439.9362"
       y="702.07111"
       transform="matrix(0.9486833,0.31622777,-0.9486833,0.31622777,0,0)" />
    <rect
       style="fill:#ffe3d5;fill-opacity:1;stroke:#000000;stroke-width:1.29099452;stroke-miterlimit:4;stroke-opacity:1;stroke-dasharray:none"
       id="rect3905"
       width="79.056976"
       height="79.056976"
       x="1360.8792"
       y="623.01416"
       transform="matrix(0.9486833,0.31622777,-0.9486833,0.31622777,0,0)" />
    <rect
       transform="matrix(0.9486833,0.31622777,-0.9486833,0.31622777,0,0)"
       y="781.12811"
       x="1281.8223"
       height="79.056976"
       width="79.056976"
       id="rect3907"
       style="fill:#ffe3d5;fill-opacity:1;stroke:#000000;stroke-width:1.29099452;stroke-miterlimit:4;stroke-opacity:1;stroke-dasharray:none" />
    <rect
       style="fill:#ffe3d5;fill-opacity:1;stroke:#000000;stroke-width:1.29099452;stroke-miterlimit:4;stroke-opacity:1;stroke-dasharray:none"
       id="rect3909"
       width="79.056976"
       height="79.056976"
       x="1360.8792"
       y="702.07117"
       transform="matrix(0.9486833,0.31622777,-0.9486833,0.31622777,0,0)" />
    <rect
       transform="matrix(0.9486833,0.31622777,-0.9486833,0.31622777,0,0)"
       y="781.12811"
       x="1360.8792"
       height="79.056976"
       width="79.056976"
       id="rect3911"
       style="fill:#ffe3d5;fill-opacity:1;stroke:#000000;stroke-width:1.29099452;stroke-miterlimit:4;stroke-opacity:1;stroke-dasharray:none" />
    <rect
       style="fill:#ffe3d5;fill-opacity:1;stroke:#000000;stroke-width:1.29099452;stroke-miterlimit:4;stroke-opacity:1;stroke-dasharray:none"
       id="rect3913"
       width="79.056976"
       height="79.056976"
       x="1518.9929"
       y="702.07117"
       transform="matrix(0.9486833,0.31622777,-0.9486833,0.31622777,0,0)" />
    <rect
       transform="matrix(0.9486833,0.31622777,-0.9486833,0.31622777,0,0)"
       y="543.95728"
       x="1360.8792"
       height="79.056976"
       width="79.056976"
       id="rect3915"
       style="fill:#ffe3d5;fill-opacity:1;stroke:#000000;stroke-width:1.29099452;stroke-miterlimit:4;stroke-opacity:1;stroke-dasharray:none" />
    <rect
       style="fill:#ffe3d5;fill-opacity:1;stroke:#000000;stroke-width:1.29099452;stroke-miterlimit:4;stroke-opacity:1;stroke-dasharray:none"
       id="rect3917"
       width="79.056976"
       height="79.056976"
       x="1360.8792"
       y="464.90024"
       transform="matrix(0.9486833,0.31622777,-0.9486833,0.31622777,0,0)" />
    <rect
       style="fill:#ffe3d5;fill-opacity:1;stroke:#000000;stroke-width:1.29099452;stroke-miterlimit:4;stroke-opacity:1;stroke-dasharray:none"
       id="rect3919"
       width="79.056976"
       height="79.056976"
       x="1281.8223"
       y="385.84329"
       transform="matrix(0.9486833,0.31622777,-0.9486833,0.31622777,0,0)" />
    <rect
       style="fill:#ffe3d5;fill-opacity:1;stroke:#000000;stroke-width:1.29099452;stroke-miterlimit:4;stroke-opacity:1;stroke-dasharray:none"
       id="rect3921"
       width="79.056976"
       height="79.056976"
       x="1281.8223"
       y="464.9003"
       transform="matrix(0.9486833,0.31622777,-0.9486833,0.31622777,0,0)" />
    <rect
       transform="matrix(0.9486833,0.31622777,-0.9486833,0.31622777,0,0)"
       y="623.01416"
       x="1518.993"
       height="79.056976"
       width="79.056976"
       id="rect3923"
       style="fill:#ffe3d5;fill-opacity:1;stroke:#000000;stroke-width:1.29099452;stroke-miterlimit:4;stroke-opacity:1;stroke-dasharray:none" />
    <rect
       transform="matrix(0.9486833,0.31622777,-0.9486833,0.31622777,0,0)"
       y="543.95721"
       x="1439.9362"
       height="79.056976"
       width="79.056976"
       id="rect3925"
       style="fill:#ffe3d5;fill-opacity:1;stroke:#000000;stroke-width:1.29099452;stroke-miterlimit:4;stroke-opacity:1;stroke-dasharray:none" />
    <rect
       transform="matrix(0.9486833,0.31622777,-0.9486833,0.31622777,0,0)"
       y="623.01422"
       x="1439.9362"
       height="79.056976"
       width="79.056976"
       id="rect3927"
       style="fill:#ffe3d5;fill-opacity:1;stroke:#000000;stroke-width:1.29099452;stroke-miterlimit:4;stroke-opacity:1;stroke-dasharray:none" />
    <rect
       transform="matrix(0.9486833,0.31622777,-0.9486833,0.31622777,0,0)"
       y="1057.8275"
       x="1321.3506"
       height="79.056976"
       width="79.056976"
       id="rect3933"
       style="fill:#fff2eb;fill-opacity:1;stroke:#000000;stroke-width:1.29099451999999992;stroke-miterlimit:4;stroke-opacity:1;stroke-dasharray:none" />
    <path
       style="fill:#b06844;fill-opacity:1;stroke:#000000;stroke-width:0.99999994000000003;stroke-miterlimit:4;stroke-opacity:1"
       d="M 76 27.71875 L 76 52.71875 L 150 77.375 L 150 52.375 L 76 27.71875 z "
       id="rect3935" />
    <path
       id="path3945"
       d="m 224,27.705933 0,25 -74,24.65625 0,-25 74,-24.65625 z"
       style="fill:#f4e9e4;fill-opacity:1;stroke:#000000;stroke-width:0.99999994000000003;stroke-miterlimit:4;stroke-opacity:1" />
    <path
       id="path3947"
       d="m 176,327.70593 0,25 74,24.65625 0,-25 -74,-24.65625 z"
       style="fill:#b06844;fill-opacity:1;stroke:#000000;stroke-width:0.99999994;stroke-miterlimit:4;stroke-opacity:1" />
    <path
       style="fill:#fbf6f4;fill-opacity:1;stroke:#000000;stroke-width:0.99999994000000003;stroke-miterlimit:4;stroke-opacity:1"
       d="m 324,327.69312 0,25 -74,24.65625 0,-25 74,-24.65625 z"
       id="path3949" />
    <path
       id="path3951"
       d="m 326,327.71875 0,25 74,24.65625 0,-25 -74,-24.65625 z"
       style="fill:#b06844;fill-opacity:1;stroke:#000000;stroke-width:0.99999994;stroke-miterlimit:4;stroke-opacity:1" />
    <path
       style="fill:#fbf6f4;fill-opacity:1;stroke:#000000;stroke-width:0.99999994000000003;stroke-miterlimit:4;stroke-opacity:1"
       d="m 474,327.70593 0,25 -74,24.65625 0,-25 74,-24.65625 z"
       id="path3953" />
    <rect
       style="fill:#ffccb3;fill-opacity:1;stroke:#000000;stroke-width:1.29099451999999992;stroke-miterlimit:4;stroke-opacity:1;stroke-dasharray:none"
       id="rect3955"
       width="79.056976"
       height="79.056976"
       x="530.78119"
       y="425.37186"
       transform="matrix(0.9486833,0.31622777,-0.9486833,0.31622777,0,0)" />
    <rect
       transform="matrix(0.9486833,0.31622777,-0.9486833,0.31622777,0,0)"
       y="346.31497"
       x="530.78119"
       height="79.056976"
       width="79.056976"
       id="rect3957"
       style="fill:#ffccb3;fill-opacity:1;stroke:#000000;stroke-width:1.29099451999999992;stroke-miterlimit:4;stroke-opacity:1;stroke-dasharray:none" />
    <path
       style="fill:#b06844;fill-opacity:1;stroke:#000000;stroke-width:0.99999994;stroke-miterlimit:4;stroke-opacity:1"
       d="m 25.999976,327.70591 0,25 74,24.65625 0,-25 -74,-24.65625 z"
       id="path3959" />
    <rect
       transform="matrix(0.9486833,0.31622777,-0.9486833,0.31622777,0,0)"
       y="464.90042"
       x="886.53748"
       height="79.056976"
       width="79.056976"
       id="rect3663"
       style="fill:#ff9865;fill-opacity:1;stroke:#000000;stroke-width:1.29099451999999992;stroke-miterlimit:4;stroke-opacity:1;stroke-dasharray:none" />
    <path
       id="path3961"
       d="m 326,477.71874 0,25 74,24.65625 0,-25 -74,-24.65625 z"
       style="fill:#b06844;fill-opacity:1;stroke:#000000;stroke-width:0.99999994;stroke-miterlimit:4;stroke-opacity:1" />
    <path
       style="fill:#fbf6f4;fill-opacity:1;stroke:#000000;stroke-width:0.99999994000000003;stroke-miterlimit:4;stroke-opacity:1"
       d="m 474,477.70593 0,25 -74,24.65625 0,-25 74,-24.65625 z"
       id="path3963" />
    <path
       id="path3965"
       d="m 326,452.70593 0,25 74,24.65625 0,-25 -74,-24.65625 z"
       style="fill:#b06844;fill-opacity:1;stroke:#000000;stroke-width:0.99999994;stroke-miterlimit:4;stroke-opacity:1" />
    <path
       style="fill:#fbf6f4;fill-opacity:1;stroke:#000000;stroke-width:0.99999994000000003;stroke-miterlimit:4;stroke-opacity:1"
       d="m 474,452.69312 0,25 -74,24.65625 0,-25 74,-24.65625 z"
       id="path3967" />
    <path
       style="fill:#b06844;fill-opacity:1;stroke:#000000;stroke-width:0.99999994;stroke-miterlimit:4;stroke-opacity:1"
       d="m 476,477.71874 0,25 74,24.65625 0,-25 -74,-24.65625 z"
       id="path3971" />
    <path
       id="path3973"
       d="m 624,477.70593 0,25 -74,24.65625 0,-25 74,-24.65625 z"
       style="fill:#fbf6f4;fill-opacity:1;stroke:#000000;stroke-width:0.99999994000000003;stroke-miterlimit:4;stroke-opacity:1" />
    <path
       id="path3975"
       d="m 174,327.70593 0,25 -74,24.65625 0,-25 74,-24.65625 z"
       style="fill:#fbf6f4;fill-opacity:1;stroke:#000000;stroke-width:0.99999994000000003;stroke-miterlimit:4;stroke-opacity:1" />
    <path
       id="path3977"
       d="m -50,527.36218 0,25 74,24.65625 0,-25 -74,-24.65625 z"
       style="fill:#b06844;fill-opacity:1;stroke:#000000;stroke-width:0.99999994;stroke-miterlimit:4;stroke-opacity:1" />
    <path
       style="fill:#b06844;fill-opacity:1;stroke:#000000;stroke-width:0.99999994;stroke-miterlimit:4;stroke-opacity:1"
       d="m 26,552.70593 0,25 74,24.65625 0,-25 -74,-24.65625 z"
       id="path3979" />
    <path
       id="path3981"
       d="m 100,577.36218 0,25 74,24.65625 0,-25 -74,-24.65625 z"
       style="fill:#b06844;fill-opacity:1;stroke:#000000;stroke-width:0.99999994;stroke-miterlimit:4;stroke-opacity:1" />
    <path
       style="fill:#b06844;fill-opacity:1;stroke:#000000;stroke-width:0.99999994;stroke-miterlimit:4;stroke-opacity:1"
       d="m 250,627.36218 0,25 74,24.65625 0,-25 -74,-24.65625 z"
       id="path3983" />
    <path
       id="path3985"
       d="m 250,677.36218 0,25 74,24.65625 0,-25 -74,-24.65625 z"
       style="fill:#b06844;fill-opacity:1;stroke:#000000;stroke-width:0.99999994;stroke-miterlimit:4;stroke-opacity:1" />
    <path
       style="fill:#b06844;fill-opacity:1;stroke:#000000;stroke-width:0.99999994;stroke-miterlimit:4;stroke-opacity:1"
       d="m 250,727.36218 0,25 74,24.65625 0,-25 -74,-24.65625 z"
       id="path3987" />
    <rect
       transform="matrix(0.9486833,0.31622777,-0.9486833,0.31622777,0,0)"
       y="939.24207"
       x="1281.822"
       height="79.056976"
       width="79.056976"
       id="rect3709"
       style="fill:#ffe3d5;fill-opacity:1;stroke:#000000;stroke-width:1.29099452;stroke-miterlimit:4;stroke-opacity:1;stroke-dasharray:none" />
    <rect
       style="fill:#ffe3d5;fill-opacity:1;stroke:#000000;stroke-width:1.29099452;stroke-miterlimit:4;stroke-opacity:1;stroke-dasharray:none"
       id="rect3723"
       width="79.056976"
       height="79.056976"
       x="1202.7653"
       y="860.18512"
       transform="matrix(0.9486833,0.31622777,-0.9486833,0.31622777,0,0)" />
    <path
       id="path3989"
       d="m 250,577.36218 0,25 74,24.65625 0,-25 -74,-24.65625 z"
       style="fill:#b06844;fill-opacity:1;stroke:#000000;stroke-width:0.99999994;stroke-miterlimit:4;stroke-opacity:1" />
    <rect
       style="fill:#ffe3d5;fill-opacity:1;stroke:#000000;stroke-width:1.29099452;stroke-miterlimit:4;stroke-opacity:1;stroke-dasharray:none"
       id="rect3711"
       width="79.056976"
       height="79.056976"
       x="1123.7083"
       y="781.12817"
       transform="matrix(0.9486833,0.31622777,-0.9486833,0.31622777,0,0)" />
    <path
       style="fill:#fbf6f4;fill-opacity:1;stroke:#000000;stroke-width:0.99999994000000003;stroke-miterlimit:4;stroke-opacity:1"
       d="m 250,577.36218 0,25 -74,24.65625 0,-25 74,-24.65625 z"
       id="path3991" />
  </g>
</svg>
